<svg width="96" height="119" viewBox="0 0 96 119" fill="none" xmlns="http://www.w3.org/2000/svg">
<rect width="96" height="119" rx="20" fill="#FC4848"/>
<path d="M14.135 100H13.918C13.554 100 13.2997 99.9627 13.155 99.888C13.029 99.8227 12.9287 99.7223 12.854 99.587C12.7793 99.4517 12.742 99.3 12.742 99.132C12.742 98.964 12.7793 98.8123 12.854 98.677C12.9287 98.5417 13.029 98.4413 13.155 98.376C13.2997 98.3013 13.5517 98.264 13.911 98.264C14.051 98.264 14.177 98.229 14.289 98.159C14.4057 98.0843 14.492 98.005 14.548 97.921C14.6087 97.837 14.681 97.7227 14.765 97.578L12.441 91.53C12.3663 91.334 12.315 91.1777 12.287 91.061C12.259 90.9397 12.2567 90.809 12.28 90.669C12.308 90.529 12.378 90.3983 12.49 90.277C12.6767 90.0763 12.91 89.976 13.19 89.976C13.4 89.976 13.5797 90.0367 13.729 90.158C13.813 90.228 13.8807 90.312 13.932 90.41C13.988 90.5033 14.058 90.6643 14.142 90.893L15.738 95.079L17.292 90.893C17.376 90.6643 17.4437 90.5033 17.495 90.41C17.551 90.312 17.621 90.228 17.705 90.158C17.8543 90.0367 18.034 89.976 18.244 89.976C18.524 89.976 18.7573 90.0763 18.944 90.277C19.056 90.3983 19.1237 90.529 19.147 90.669C19.175 90.809 19.175 90.9373 19.147 91.054C19.119 91.1707 19.0677 91.3293 18.993 91.53L16.564 98.026C16.0693 99.342 15.2597 100 14.135 100ZM20.7255 99.594C20.6695 99.4773 20.6322 99.3653 20.6135 99.258C20.5995 99.1507 20.5925 98.978 20.5925 98.74V91.222C20.5925 91.0913 20.5948 90.9863 20.5995 90.907C20.6088 90.8277 20.6345 90.7297 20.6765 90.613C20.7185 90.4917 20.7815 90.389 20.8655 90.305C20.9495 90.221 21.0498 90.158 21.1665 90.116C21.2878 90.074 21.3882 90.0507 21.4675 90.046C21.5468 90.0367 21.6518 90.032 21.7825 90.032H24.4705C25.4738 90.032 26.2718 90.3307 26.8645 90.928C27.4618 91.5253 27.7605 92.2627 27.7605 93.14C27.7605 94.0173 27.4618 94.7547 26.8645 95.352C26.2718 95.9493 25.4738 96.248 24.4705 96.248H22.5525V98.74C22.5525 98.978 22.5432 99.1507 22.5245 99.258C22.5105 99.3653 22.4755 99.4773 22.4195 99.594C22.3448 99.734 22.2305 99.846 22.0765 99.93C21.9272 100.014 21.7592 100.056 21.5725 100.056C21.3858 100.056 21.2155 100.014 21.0615 99.93C20.9122 99.846 20.8002 99.734 20.7255 99.594ZM22.5525 94.512H24.3585C24.7972 94.512 25.1472 94.386 25.4085 94.134C25.6698 93.882 25.8005 93.5507 25.8005 93.14C25.8005 92.7293 25.6698 92.398 25.4085 92.146C25.1472 91.894 24.7972 91.768 24.3585 91.768H22.5525V94.512ZM35.4242 99.034C34.7335 99.734 33.8422 100.084 32.7502 100.084C31.6582 100.084 30.7669 99.734 30.0762 99.034C29.8802 98.838 29.7169 98.628 29.5862 98.404C29.4602 98.18 29.3599 97.9653 29.2852 97.76C29.2152 97.55 29.1615 97.2817 29.1242 96.955C29.0915 96.6283 29.0705 96.339 29.0612 96.087C29.0565 95.8303 29.0542 95.4733 29.0542 95.016C29.0542 94.5587 29.0565 94.204 29.0612 93.952C29.0705 93.6953 29.0915 93.4037 29.1242 93.077C29.1615 92.7503 29.2152 92.4843 29.2852 92.279C29.3599 92.069 29.4602 91.852 29.5862 91.628C29.7169 91.404 29.8802 91.194 30.0762 90.998C30.7669 90.298 31.6582 89.948 32.7502 89.948C33.8422 89.948 34.7335 90.298 35.4242 90.998C35.6202 91.194 35.7812 91.404 35.9072 91.628C36.0379 91.852 36.1382 92.069 36.2082 92.279C36.2829 92.4843 36.3365 92.7503 36.3692 93.077C36.4065 93.4037 36.4275 93.6953 36.4322 93.952C36.4415 94.204 36.4462 94.5587 36.4462 95.016C36.4462 95.4733 36.4415 95.8303 36.4322 96.087C36.4275 96.339 36.4065 96.6283 36.3692 96.955C36.3365 97.2817 36.2829 97.55 36.2082 97.76C36.1382 97.9653 36.0379 98.18 35.9072 98.404C35.7812 98.628 35.6202 98.838 35.4242 99.034ZM34.0032 92.216C33.6952 91.8613 33.2775 91.684 32.7502 91.684C32.2229 91.684 31.8052 91.8613 31.4972 92.216C31.3059 92.4307 31.1775 92.72 31.1122 93.084C31.0469 93.4433 31.0142 94.0873 31.0142 95.016C31.0142 95.9447 31.0469 96.5887 31.1122 96.948C31.1775 97.3073 31.3059 97.5943 31.4972 97.809C31.8145 98.1683 32.2322 98.348 32.7502 98.348C33.2682 98.348 33.6859 98.1683 34.0032 97.809C34.1945 97.5943 34.3229 97.3073 34.3882 96.948C34.4535 96.5887 34.4862 95.9447 34.4862 95.016C34.4862 94.0873 34.4535 93.4433 34.3882 93.084C34.3229 92.72 34.1945 92.4307 34.0032 92.216ZM42.6 100H39.597C39.4663 100 39.3613 99.9977 39.282 99.993C39.2026 99.9837 39.1023 99.958 38.981 99.916C38.8643 99.874 38.764 99.811 38.68 99.727C38.596 99.643 38.533 99.5427 38.491 99.426C38.449 99.3047 38.4233 99.2043 38.414 99.125C38.4093 99.0457 38.407 98.9407 38.407 98.81V91.222C38.407 91.0913 38.4093 90.9863 38.414 90.907C38.4233 90.8277 38.449 90.7297 38.491 90.613C38.533 90.4917 38.596 90.389 38.68 90.305C38.764 90.221 38.8643 90.158 38.981 90.116C39.1023 90.074 39.2026 90.0507 39.282 90.046C39.3613 90.0367 39.4663 90.032 39.597 90.032H42.432C43.4026 90.032 44.161 90.284 44.707 90.788C45.253 91.2873 45.526 91.9687 45.526 92.832C45.526 93.3313 45.3953 93.763 45.134 94.127C44.8773 94.491 44.5926 94.7453 44.28 94.89C44.4526 94.9693 44.6113 95.065 44.756 95.177C44.9053 95.289 45.0523 95.4337 45.197 95.611C45.3416 95.7837 45.456 96.0007 45.54 96.262C45.624 96.5233 45.666 96.8127 45.666 97.13C45.666 98.04 45.3836 98.747 44.819 99.251C44.259 99.7503 43.5193 100 42.6 100ZM40.367 98.264H42.404C42.824 98.264 43.146 98.1473 43.37 97.914C43.594 97.6807 43.706 97.3867 43.706 97.032C43.706 96.6773 43.594 96.3857 43.37 96.157C43.146 95.9283 42.824 95.814 42.404 95.814H40.367V98.264ZM42.278 91.768H40.367V94.064H42.278C42.684 94.064 42.999 93.9613 43.223 93.756C43.4516 93.546 43.566 93.266 43.566 92.916C43.566 92.566 43.4516 92.2883 43.223 92.083C42.999 91.873 42.684 91.768 42.278 91.768ZM48.8391 100C48.7085 100 48.6035 99.9977 48.5241 99.993C48.4448 99.9837 48.3445 99.958 48.2231 99.916C48.1065 99.874 48.0061 99.811 47.9221 99.727C47.8381 99.643 47.7751 99.5427 47.7331 99.426C47.6911 99.3047 47.6655 99.2043 47.6561 99.125C47.6515 99.0457 47.6491 98.9407 47.6491 98.81V91.222C47.6491 91.0913 47.6515 90.9863 47.6561 90.907C47.6655 90.8277 47.6911 90.7297 47.7331 90.613C47.7751 90.4917 47.8381 90.389 47.9221 90.305C48.0061 90.221 48.1065 90.158 48.2231 90.116C48.3445 90.074 48.4448 90.0507 48.5241 90.046C48.6035 90.0367 48.7085 90.032 48.8391 90.032H53.1091C53.4731 90.032 53.7275 90.0693 53.8721 90.144C53.9981 90.2093 54.0985 90.3097 54.1731 90.445C54.2478 90.5803 54.2851 90.732 54.2851 90.9C54.2851 91.068 54.2478 91.2197 54.1731 91.355C54.0985 91.4903 53.9981 91.5907 53.8721 91.656C53.7275 91.7307 53.4731 91.768 53.1091 91.768H49.6091V94.106H52.4371C52.8011 94.106 53.0555 94.1433 53.2001 94.218C53.3261 94.2833 53.4265 94.3837 53.5011 94.519C53.5758 94.6543 53.6131 94.806 53.6131 94.974C53.6131 95.142 53.5758 95.2937 53.5011 95.429C53.4265 95.5643 53.3261 95.6647 53.2001 95.73C53.0555 95.8047 52.8011 95.842 52.4371 95.842H49.6091V98.264H53.1091C53.4731 98.264 53.7275 98.3013 53.8721 98.376C53.9981 98.4413 54.0985 98.5417 54.1731 98.677C54.2478 98.8123 54.2851 98.964 54.2851 99.132C54.2851 99.3 54.2478 99.4517 54.1731 99.587C54.0985 99.7223 53.9981 99.8227 53.8721 99.888C53.7275 99.9627 53.4731 100 53.1091 100H48.8391ZM58.0584 95.828V98.74C58.0584 98.978 58.049 99.1507 58.0304 99.258C58.0164 99.3653 57.9814 99.4773 57.9254 99.594C57.8507 99.734 57.7364 99.846 57.5824 99.93C57.433 100.014 57.265 100.056 57.0784 100.056C56.8917 100.056 56.7214 100.014 56.5674 99.93C56.418 99.846 56.306 99.734 56.2314 99.594C56.1754 99.4773 56.138 99.3653 56.1194 99.258C56.1054 99.1507 56.0984 98.978 56.0984 98.74V91.292C56.0984 91.054 56.1054 90.8813 56.1194 90.774C56.138 90.6667 56.1754 90.5547 56.2314 90.438C56.306 90.298 56.418 90.186 56.5674 90.102C56.7214 90.018 56.8917 89.976 57.0784 89.976C57.265 89.976 57.433 90.018 57.5824 90.102C57.7364 90.186 57.8507 90.298 57.9254 90.438C57.9814 90.5547 58.0164 90.6667 58.0304 90.774C58.049 90.8813 58.0584 91.054 58.0584 91.292V94.092H61.4324V91.292C61.4324 91.054 61.4394 90.8813 61.4534 90.774C61.472 90.6667 61.5094 90.5547 61.5654 90.438C61.64 90.298 61.752 90.186 61.9014 90.102C62.0554 90.018 62.2257 89.976 62.4124 89.976C62.599 89.976 62.767 90.018 62.9164 90.102C63.0704 90.186 63.1847 90.298 63.2594 90.438C63.3154 90.5547 63.3504 90.6667 63.3644 90.774C63.383 90.8813 63.3924 91.054 63.3924 91.292V98.74C63.3924 98.978 63.383 99.1507 63.3644 99.258C63.3504 99.3653 63.3154 99.4773 63.2594 99.594C63.1847 99.734 63.0704 99.846 62.9164 99.93C62.767 100.014 62.599 100.056 62.4124 100.056C62.2257 100.056 62.0554 100.014 61.9014 99.93C61.752 99.846 61.64 99.734 61.5654 99.594C61.5094 99.4773 61.472 99.3653 61.4534 99.258C61.4394 99.1507 61.4324 98.978 61.4324 98.74V95.828H58.0584ZM65.829 90.438C65.9037 90.298 66.0157 90.186 66.165 90.102C66.319 90.018 66.4893 89.976 66.676 89.976C66.8627 89.976 67.0307 90.018 67.18 90.102C67.334 90.186 67.4483 90.298 67.523 90.438C67.579 90.5547 67.614 90.6667 67.628 90.774C67.6467 90.8813 67.656 91.054 67.656 91.292V93.784H69.574C70.5773 93.784 71.3753 94.0827 71.968 94.68C72.5653 95.2773 72.864 96.0147 72.864 96.892C72.864 97.7693 72.5653 98.5067 71.968 99.104C71.3753 99.7013 70.5773 100 69.574 100H66.886C66.7553 100 66.6503 99.9977 66.571 99.993C66.4917 99.9837 66.3913 99.958 66.27 99.916C66.1533 99.874 66.053 99.811 65.969 99.727C65.885 99.643 65.822 99.5427 65.78 99.426C65.738 99.3047 65.7123 99.2043 65.703 99.125C65.6983 99.0457 65.696 98.9407 65.696 98.81V91.292C65.696 91.054 65.703 90.8813 65.717 90.774C65.7357 90.6667 65.773 90.5547 65.829 90.438ZM69.462 95.52H67.656V98.264H69.462C69.9007 98.264 70.2507 98.138 70.512 97.886C70.7733 97.634 70.904 97.3027 70.904 96.892C70.904 96.4813 70.7733 96.15 70.512 95.898C70.2507 95.646 69.9007 95.52 69.462 95.52ZM77.8386 93.798C77.5913 93.5507 77.5119 93.2823 77.6006 92.993C77.6519 92.8297 77.8013 92.6243 78.0486 92.377L79.9806 90.445C80.2933 90.1323 80.6199 89.976 80.9606 89.976C81.2359 89.976 81.4599 90.0623 81.6326 90.235C81.8099 90.417 81.8986 90.725 81.8986 91.159V98.81C81.8986 99.1927 81.8589 99.4633 81.7796 99.622C81.6349 99.9113 81.3713 100.056 80.9886 100.056C80.6059 100.056 80.3423 99.9113 80.1976 99.622C80.1183 99.4633 80.0786 99.1927 80.0786 98.81V92.769L79.2596 93.588C79.1103 93.7373 78.9959 93.8423 78.9166 93.903C78.8373 93.959 78.7486 94.0033 78.6506 94.036C78.3706 94.1293 78.0999 94.05 77.8386 93.798Z" fill="white"/>
</svg>
